<svg xmlns="http://www.w3.org/2000/svg" version="1.1" xmlns:xlink="http://www.w3.org/1999/xlink" xmlns:svgjs="http://svgjs.com/svgjs" width="800" height="580" preserveAspectRatio="none" viewBox="0 0 800 580"><g mask="url(&quot;#SvgjsMask1104&quot;)" fill="none"><rect width="800" height="580" x="0" y="0" fill="url(#SvgjsLinearGradient1105)"></rect><path d="M798 353L797 63" stroke-width="6" stroke="url(#SvgjsLinearGradient1106)" stroke-linecap="round" class="Down"></path><path d="M239 205L238 -140" stroke-width="10" stroke="url(#SvgjsLinearGradient1106)" stroke-linecap="round" class="Down"></path><path d="M667 48L666 261" stroke-width="6" stroke="url(#SvgjsLinearGradient1107)" stroke-linecap="round" class="Up"></path><path d="M439 575L438 885" stroke-width="6" stroke="url(#SvgjsLinearGradient1106)" stroke-linecap="round" class="Down"></path><path d="M557 495L556 181" stroke-width="8" stroke="url(#SvgjsLinearGradient1107)" stroke-linecap="round" class="Up"></path><path d="M141 81L140 455" stroke-width="6" stroke="url(#SvgjsLinearGradient1106)" stroke-linecap="round" class="Down"></path><path d="M286 277L285 699" stroke-width="8" stroke="url(#SvgjsLinearGradient1106)" stroke-linecap="round" class="Down"></path><path d="M437 66L436 485" stroke-width="10" stroke="url(#SvgjsLinearGradient1107)" stroke-linecap="round" class="Up"></path><path d="M210 502L209 845" stroke-width="10" stroke="url(#SvgjsLinearGradient1107)" stroke-linecap="round" class="Up"></path><path d="M376 488L375 868" stroke-width="10" stroke="url(#SvgjsLinearGradient1106)" stroke-linecap="round" class="Down"></path><path d="M533 84L532 -348" stroke-width="8" stroke="url(#SvgjsLinearGradient1106)" stroke-linecap="round" class="Down"></path><path d="M735 232L734 83" stroke-width="6" stroke="url(#SvgjsLinearGradient1107)" stroke-linecap="round" class="Up"></path><path d="M595 66L594 365" stroke-width="6" stroke="url(#SvgjsLinearGradient1107)" stroke-linecap="round" class="Up"></path><path d="M422 149L421 -156" stroke-width="6" stroke="url(#SvgjsLinearGradient1106)" stroke-linecap="round" class="Down"></path><path d="M58 72L57 -175" stroke-width="8" stroke="url(#SvgjsLinearGradient1106)" stroke-linecap="round" class="Down"></path><path d="M110 43L109 341" stroke-width="10" stroke="url(#SvgjsLinearGradient1107)" stroke-linecap="round" class="Up"></path><path d="M28 327L27 94" stroke-width="10" stroke="url(#SvgjsLinearGradient1106)" stroke-linecap="round" class="Down"></path><path d="M494 180L493 390" stroke-width="10" stroke="url(#SvgjsLinearGradient1106)" stroke-linecap="round" class="Down"></path><path d="M313 462L312 670" stroke-width="8" stroke="url(#SvgjsLinearGradient1106)" stroke-linecap="round" class="Down"></path><path d="M762 250L761 -171" stroke-width="10" stroke="url(#SvgjsLinearGradient1106)" stroke-linecap="round" class="Down"></path></g><defs><mask id="SvgjsMask1104"><rect width="800" height="580" fill="#ffffff"></rect></mask><linearGradient x1="6.87%" y1="-9.48%" x2="93.13%" y2="109.48%" gradientUnits="userSpaceOnUse" id="SvgjsLinearGradient1105"><stop stop-color="#0e2a47" offset="0"></stop><stop stop-color="#00459e" offset="1"></stop></linearGradient><linearGradient x1="0%" y1="0%" x2="0%" y2="100%" id="SvgjsLinearGradient1106"><stop stop-color="rgba(0, 120, 249, 0)" offset="0"></stop><stop stop-color="rgba(0, 120, 249, 1)" offset="1"></stop></linearGradient><linearGradient x1="0%" y1="100%" x2="0%" y2="0%" id="SvgjsLinearGradient1107"><stop stop-color="rgba(0, 120, 249, 0)" offset="0"></stop><stop stop-color="rgba(0, 120, 249, 1)" offset="1"></stop></linearGradient></defs></svg>