<svg xmlns="http://www.w3.org/2000/svg" version="1.1" xmlns:xlink="http://www.w3.org/1999/xlink" xmlns:svgjs="http://svgjs.com/svgjs" width="555" height="940" preserveAspectRatio="none" viewBox="0 0 555 940"><g mask="url(&quot;#SvgjsMask1127&quot;)" fill="none"><rect width="555" height="940" x="0" y="0" fill="url(#SvgjsLinearGradient1128)"></rect><path d="M-72.48 553.83L-72.48 553.83" stroke="#132e65" stroke-width="1.5"></path><path d="M-72.48 553.83L-59.66 640.32" stroke="#132e65" stroke-width="1.5"></path><path d="M-72.48 553.83L-72.61 739.77" stroke="#132e65" stroke-width="1.5"></path><path d="M-72.48 553.83L76.93 665.62" stroke="#132e65" stroke-width="1.5"></path><path d="M-59.66 640.32L-59.66 640.32" stroke="#132e65" stroke-width="1.5"></path><path d="M-59.66 640.32L-72.61 739.77" stroke="#132e65" stroke-width="1.5"></path><path d="M-72.61 739.77L-72.61 739.77" stroke="#132e65" stroke-width="1.5"></path><path d="M-72.61 739.77L-74.53 875.7" stroke="#132e65" stroke-width="1.5"></path><path d="M-72.61 739.77L63.98 788" stroke="#132e65" stroke-width="1.5"></path><path d="M-72.61 739.77L76.93 665.62" stroke="#132e65" stroke-width="1.5"></path><path d="M-72.61 739.77L82.17 896.57" stroke="#132e65" stroke-width="1.5"></path><path d="M-74.53 875.7L-74.53 875.7" stroke="#132e65" stroke-width="1.5"></path><path d="M-74.53 875.7L-40.25 1026.84" stroke="#132e65" stroke-width="1.5"></path><path d="M-40.25 1026.84L-40.25 1026.84" stroke="#132e65" stroke-width="1.5"></path><path d="M-40.25 1026.84L58.85 979.38" stroke="#132e65" stroke-width="1.5"></path><path d="M-40.25 1026.84L82.17 896.57" stroke="#132e65" stroke-width="1.5"></path><path d="M76.93 665.62L76.93 665.62" stroke="#132e65" stroke-width="1.5"></path><path d="M76.93 665.62L153.06 668.46" stroke="#132e65" stroke-width="1.5"></path><path d="M76.93 665.62L63.98 788" stroke="#132e65" stroke-width="1.5"></path><path d="M76.93 665.62L152.3 771.27" stroke="#132e65" stroke-width="1.5"></path><path d="M76.93 665.62L-59.66 640.32" stroke="#132e65" stroke-width="1.5"></path><path d="M76.93 665.62L169.71 555.2" stroke="#132e65" stroke-width="1.5"></path><path d="M63.98 788L63.98 788" stroke="#132e65" stroke-width="1.5"></path><path d="M63.98 788L152.3 771.27" stroke="#132e65" stroke-width="1.5"></path><path d="M63.98 788L82.17 896.57" stroke="#132e65" stroke-width="1.5"></path><path d="M82.17 896.57L82.17 896.57" stroke="#132e65" stroke-width="1.5"></path><path d="M82.17 896.57L58.85 979.38" stroke="#132e65" stroke-width="1.5"></path><path d="M82.17 896.57L159.84 985.98" stroke="#132e65" stroke-width="1.5"></path><path d="M82.17 896.57L197.99 859.08" stroke="#132e65" stroke-width="1.5"></path><path d="M82.17 896.57L152.3 771.27" stroke="#132e65" stroke-width="1.5"></path><path d="M82.17 896.57L-74.53 875.7" stroke="#132e65" stroke-width="1.5"></path><path d="M58.85 979.38L58.85 979.38" stroke="#132e65" stroke-width="1.5"></path><path d="M58.85 979.38L159.84 985.98" stroke="#132e65" stroke-width="1.5"></path><path d="M169.71 555.2L169.71 555.2" stroke="#132e65" stroke-width="1.5"></path><path d="M169.71 555.2L153.06 668.46" stroke="#132e65" stroke-width="1.5"></path><path d="M169.71 555.2L308.69 525.23" stroke="#132e65" stroke-width="1.5"></path><path d="M153.06 668.46L153.06 668.46" stroke="#132e65" stroke-width="1.5"></path><path d="M153.06 668.46L152.3 771.27" stroke="#132e65" stroke-width="1.5"></path><path d="M152.3 771.27L152.3 771.27" stroke="#132e65" stroke-width="1.5"></path><path d="M152.3 771.27L197.99 859.08" stroke="#132e65" stroke-width="1.5"></path><path d="M152.3 771.27L270.67 766.1" stroke="#132e65" stroke-width="1.5"></path><path d="M197.99 859.08L197.99 859.08" stroke="#132e65" stroke-width="1.5"></path><path d="M197.99 859.08L268.43 904.57" stroke="#132e65" stroke-width="1.5"></path><path d="M197.99 859.08L270.67 766.1" stroke="#132e65" stroke-width="1.5"></path><path d="M159.84 985.98L159.84 985.98" stroke="#132e65" stroke-width="1.5"></path><path d="M159.84 985.98L197.99 859.08" stroke="#132e65" stroke-width="1.5"></path><path d="M321.68 297.06L321.68 297.06" stroke="#132e65" stroke-width="1.5"></path><path d="M321.68 297.06L430.58 288.09" stroke="#132e65" stroke-width="1.5"></path><path d="M321.68 297.06L305.43 430.06" stroke="#132e65" stroke-width="1.5"></path><path d="M321.68 297.06L431.85 162.01" stroke="#132e65" stroke-width="1.5"></path><path d="M305.43 430.06L305.43 430.06" stroke="#132e65" stroke-width="1.5"></path><path d="M305.43 430.06L308.69 525.23" stroke="#132e65" stroke-width="1.5"></path><path d="M305.43 430.06L408.79 553.83" stroke="#132e65" stroke-width="1.5"></path><path d="M305.43 430.06L169.71 555.2" stroke="#132e65" stroke-width="1.5"></path><path d="M305.43 430.06L430.58 288.09" stroke="#132e65" stroke-width="1.5"></path><path d="M305.43 430.06L507.53 414.32" stroke="#132e65" stroke-width="1.5"></path><path d="M308.69 525.23L308.69 525.23" stroke="#132e65" stroke-width="1.5"></path><path d="M308.69 525.23L408.79 553.83" stroke="#132e65" stroke-width="1.5"></path><path d="M315.63 664.97L315.63 664.97" stroke="#132e65" stroke-width="1.5"></path><path d="M315.63 664.97L387.8 651.48" stroke="#132e65" stroke-width="1.5"></path><path d="M315.63 664.97L270.67 766.1" stroke="#132e65" stroke-width="1.5"></path><path d="M315.63 664.97L397.73 774.99" stroke="#132e65" stroke-width="1.5"></path><path d="M315.63 664.97L308.69 525.23" stroke="#132e65" stroke-width="1.5"></path><path d="M315.63 664.97L408.79 553.83" stroke="#132e65" stroke-width="1.5"></path><path d="M315.63 664.97L153.06 668.46" stroke="#132e65" stroke-width="1.5"></path><path d="M270.67 766.1L270.67 766.1" stroke="#132e65" stroke-width="1.5"></path><path d="M270.67 766.1L397.73 774.99" stroke="#132e65" stroke-width="1.5"></path><path d="M268.43 904.57L268.43 904.57" stroke="#132e65" stroke-width="1.5"></path><path d="M306.29 1022.98L306.29 1022.98" stroke="#132e65" stroke-width="1.5"></path><path d="M306.29 1022.98L268.43 904.57" stroke="#132e65" stroke-width="1.5"></path><path d="M306.29 1022.98L435.05 1003.61" stroke="#132e65" stroke-width="1.5"></path><path d="M306.29 1022.98L159.84 985.98" stroke="#132e65" stroke-width="1.5"></path><path d="M306.29 1022.98L396.85 865.94" stroke="#132e65" stroke-width="1.5"></path><path d="M306.29 1022.98L197.99 859.08" stroke="#132e65" stroke-width="1.5"></path><path d="M418.52 -34.53L418.52 -34.53" stroke="#132e65" stroke-width="1.5"></path><path d="M418.52 -34.53L418.93 57.59" stroke="#132e65" stroke-width="1.5"></path><path d="M418.52 -34.53L546.37 -62.84" stroke="#132e65" stroke-width="1.5"></path><path d="M418.52 -34.53L505.05 85.64" stroke="#132e65" stroke-width="1.5"></path><path d="M418.93 57.59L418.93 57.59" stroke="#132e65" stroke-width="1.5"></path><path d="M418.93 57.59L505.05 85.64" stroke="#132e65" stroke-width="1.5"></path><path d="M418.93 57.59L431.85 162.01" stroke="#132e65" stroke-width="1.5"></path><path d="M418.93 57.59L546.37 -62.84" stroke="#132e65" stroke-width="1.5"></path><path d="M418.93 57.59L640.55 69.64" stroke="#132e65" stroke-width="1.5"></path><path d="M431.85 162.01L431.85 162.01" stroke="#132e65" stroke-width="1.5"></path><path d="M431.85 162.01L505.05 85.64" stroke="#132e65" stroke-width="1.5"></path><path d="M431.85 162.01L430.58 288.09" stroke="#132e65" stroke-width="1.5"></path><path d="M430.58 288.09L430.58 288.09" stroke="#132e65" stroke-width="1.5"></path><path d="M430.58 288.09L530.29 277.74" stroke="#132e65" stroke-width="1.5"></path><path d="M408.79 553.83L408.79 553.83" stroke="#132e65" stroke-width="1.5"></path><path d="M408.79 553.83L387.8 651.48" stroke="#132e65" stroke-width="1.5"></path><path d="M387.8 651.48L387.8 651.48" stroke="#132e65" stroke-width="1.5"></path><path d="M397.73 774.99L397.73 774.99" stroke="#132e65" stroke-width="1.5"></path><path d="M397.73 774.99L396.85 865.94" stroke="#132e65" stroke-width="1.5"></path><path d="M397.73 774.99L511.09 770.83" stroke="#132e65" stroke-width="1.5"></path><path d="M397.73 774.99L387.8 651.48" stroke="#132e65" stroke-width="1.5"></path><path d="M396.85 865.94L396.85 865.94" stroke="#132e65" stroke-width="1.5"></path><path d="M396.85 865.94L268.43 904.57" stroke="#132e65" stroke-width="1.5"></path><path d="M396.85 865.94L435.05 1003.61" stroke="#132e65" stroke-width="1.5"></path><path d="M396.85 865.94L544.72 880.85" stroke="#132e65" stroke-width="1.5"></path><path d="M396.85 865.94L511.09 770.83" stroke="#132e65" stroke-width="1.5"></path><path d="M396.85 865.94L270.67 766.1" stroke="#132e65" stroke-width="1.5"></path><path d="M435.05 1003.61L435.05 1003.61" stroke="#132e65" stroke-width="1.5"></path><path d="M435.05 1003.61L550.79 999.82" stroke="#132e65" stroke-width="1.5"></path><path d="M546.37 -62.84L546.37 -62.84" stroke="#132e65" stroke-width="1.5"></path><path d="M546.37 -62.84L618.58 -83.9" stroke="#132e65" stroke-width="1.5"></path><path d="M546.37 -62.84L505.05 85.64" stroke="#132e65" stroke-width="1.5"></path><path d="M546.37 -62.84L640.55 69.64" stroke="#132e65" stroke-width="1.5"></path><path d="M546.37 -62.84L431.85 162.01" stroke="#132e65" stroke-width="1.5"></path><path d="M505.05 85.64L505.05 85.64" stroke="#132e65" stroke-width="1.5"></path><path d="M505.05 85.64L640.55 69.64" stroke="#132e65" stroke-width="1.5"></path><path d="M505.05 85.64L651.52 205.32" stroke="#132e65" stroke-width="1.5"></path><path d="M530.29 277.74L530.29 277.74" stroke="#132e65" stroke-width="1.5"></path><path d="M530.29 277.74L651.32 268.83" stroke="#132e65" stroke-width="1.5"></path><path d="M507.53 414.32L507.53 414.32" stroke="#132e65" stroke-width="1.5"></path><path d="M507.53 414.32L622.24 415.06" stroke="#132e65" stroke-width="1.5"></path><path d="M507.53 414.32L529.81 547.21" stroke="#132e65" stroke-width="1.5"></path><path d="M507.53 414.32L530.29 277.74" stroke="#132e65" stroke-width="1.5"></path><path d="M507.53 414.32L430.58 288.09" stroke="#132e65" stroke-width="1.5"></path><path d="M507.53 414.32L408.79 553.83" stroke="#132e65" stroke-width="1.5"></path><path d="M507.53 414.32L667.19 516.41" stroke="#132e65" stroke-width="1.5"></path><path d="M529.81 547.21L529.81 547.21" stroke="#132e65" stroke-width="1.5"></path><path d="M529.81 547.21L552.81 625.94" stroke="#132e65" stroke-width="1.5"></path><path d="M529.81 547.21L408.79 553.83" stroke="#132e65" stroke-width="1.5"></path><path d="M552.81 625.94L552.81 625.94" stroke="#132e65" stroke-width="1.5"></path><path d="M552.81 625.94L669.51 626.42" stroke="#132e65" stroke-width="1.5"></path><path d="M552.81 625.94L511.09 770.83" stroke="#132e65" stroke-width="1.5"></path><path d="M552.81 625.94L667.19 516.41" stroke="#132e65" stroke-width="1.5"></path><path d="M552.81 625.94L408.79 553.83" stroke="#132e65" stroke-width="1.5"></path><path d="M511.09 770.83L511.09 770.83" stroke="#132e65" stroke-width="1.5"></path><path d="M511.09 770.83L544.72 880.85" stroke="#132e65" stroke-width="1.5"></path><path d="M511.09 770.83L656.99 749.01" stroke="#132e65" stroke-width="1.5"></path><path d="M544.72 880.85L544.72 880.85" stroke="#132e65" stroke-width="1.5"></path><path d="M544.72 880.85L643.27 909.45" stroke="#132e65" stroke-width="1.5"></path><path d="M550.79 999.82L550.79 999.82" stroke="#132e65" stroke-width="1.5"></path><path d="M550.79 999.82L544.72 880.85" stroke="#132e65" stroke-width="1.5"></path><path d="M550.79 999.82L643.27 909.45" stroke="#132e65" stroke-width="1.5"></path><path d="M550.79 999.82L396.85 865.94" stroke="#132e65" stroke-width="1.5"></path><path d="M618.58 -83.9L618.58 -83.9" stroke="#132e65" stroke-width="1.5"></path><path d="M618.58 -83.9L640.55 69.64" stroke="#132e65" stroke-width="1.5"></path><path d="M618.58 -83.9L505.05 85.64" stroke="#132e65" stroke-width="1.5"></path><path d="M640.55 69.64L640.55 69.64" stroke="#132e65" stroke-width="1.5"></path><path d="M640.55 69.64L651.52 205.32" stroke="#132e65" stroke-width="1.5"></path><path d="M640.55 69.64L651.32 268.83" stroke="#132e65" stroke-width="1.5"></path><path d="M651.52 205.32L651.52 205.32" stroke="#132e65" stroke-width="1.5"></path><path d="M651.52 205.32L651.32 268.83" stroke="#132e65" stroke-width="1.5"></path><path d="M651.32 268.83L651.32 268.83" stroke="#132e65" stroke-width="1.5"></path><path d="M651.32 268.83L622.24 415.06" stroke="#132e65" stroke-width="1.5"></path><path d="M622.24 415.06L622.24 415.06" stroke="#132e65" stroke-width="1.5"></path><path d="M622.24 415.06L667.19 516.41" stroke="#132e65" stroke-width="1.5"></path><path d="M667.19 516.41L667.19 516.41" stroke="#132e65" stroke-width="1.5"></path><path d="M667.19 516.41L669.51 626.42" stroke="#132e65" stroke-width="1.5"></path><path d="M667.19 516.41L529.81 547.21" stroke="#132e65" stroke-width="1.5"></path><path d="M669.51 626.42L669.51 626.42" stroke="#132e65" stroke-width="1.5"></path><path d="M669.51 626.42L656.99 749.01" stroke="#132e65" stroke-width="1.5"></path><path d="M669.51 626.42L529.81 547.21" stroke="#132e65" stroke-width="1.5"></path><path d="M669.51 626.42L511.09 770.83" stroke="#132e65" stroke-width="1.5"></path><path d="M669.51 626.42L622.24 415.06" stroke="#132e65" stroke-width="1.5"></path><path d="M656.99 749.01L656.99 749.01" stroke="#132e65" stroke-width="1.5"></path><path d="M656.99 749.01L643.27 909.45" stroke="#132e65" stroke-width="1.5"></path><path d="M656.99 749.01L552.81 625.94" stroke="#132e65" stroke-width="1.5"></path><path d="M643.27 909.45L643.27 909.45" stroke="#132e65" stroke-width="1.5"></path><path d="M643.27 909.45L511.09 770.83" stroke="#132e65" stroke-width="1.5"></path><circle r="5" cx="-72.48" cy="553.83" fill="#132e65"></circle><circle r="5" cx="-59.66" cy="640.32" fill="#132e65"></circle><circle r="5" cx="-72.61" cy="739.77" fill="#132e65"></circle><circle r="5" cx="-74.53" cy="875.7" fill="#132e65"></circle><circle r="5" cx="-40.25" cy="1026.84" fill="#132e65"></circle><circle r="5" cx="76.93" cy="665.62" fill="#132e65"></circle><circle r="5" cx="63.98" cy="788" fill="#132e65"></circle><circle r="5" cx="82.17" cy="896.57" fill="#132e65"></circle><circle r="5" cx="58.85" cy="979.38" fill="#132e65"></circle><circle r="5" cx="169.71" cy="555.2" fill="#132e65"></circle><circle r="5" cx="153.06" cy="668.46" fill="#132e65"></circle><circle r="5" cx="152.3" cy="771.27" fill="#132e65"></circle><circle r="5" cx="197.99" cy="859.08" fill="#132e65"></circle><circle r="5" cx="159.84" cy="985.98" fill="#132e65"></circle><circle r="5" cx="321.68" cy="297.06" fill="#132e65"></circle><circle r="5" cx="305.43" cy="430.06" fill="#132e65"></circle><circle r="5" cx="308.69" cy="525.23" fill="#132e65"></circle><circle r="5" cx="315.63" cy="664.97" fill="#132e65"></circle><circle r="5" cx="270.67" cy="766.1" fill="#132e65"></circle><circle r="5" cx="268.43" cy="904.57" fill="#132e65"></circle><circle r="5" cx="306.29" cy="1022.98" fill="#132e65"></circle><circle r="5" cx="418.52" cy="-34.53" fill="#132e65"></circle><circle r="5" cx="418.93" cy="57.59" fill="#132e65"></circle><circle r="5" cx="431.85" cy="162.01" fill="#132e65"></circle><circle r="5" cx="430.58" cy="288.09" fill="#132e65"></circle><circle r="5" cx="408.79" cy="553.83" fill="#132e65"></circle><circle r="5" cx="387.8" cy="651.48" fill="#132e65"></circle><circle r="5" cx="397.73" cy="774.99" fill="#132e65"></circle><circle r="5" cx="396.85" cy="865.94" fill="#132e65"></circle><circle r="5" cx="435.05" cy="1003.61" fill="#132e65"></circle><circle r="5" cx="546.37" cy="-62.84" fill="#132e65"></circle><circle r="5" cx="505.05" cy="85.64" fill="#132e65"></circle><circle r="5" cx="530.29" cy="277.74" fill="#132e65"></circle><circle r="5" cx="507.53" cy="414.32" fill="#132e65"></circle><circle r="5" cx="529.81" cy="547.21" fill="#132e65"></circle><circle r="5" cx="552.81" cy="625.94" fill="#132e65"></circle><circle r="5" cx="511.09" cy="770.83" fill="#132e65"></circle><circle r="5" cx="544.72" cy="880.85" fill="#132e65"></circle><circle r="5" cx="550.79" cy="999.82" fill="#132e65"></circle><circle r="5" cx="618.58" cy="-83.9" fill="#132e65"></circle><circle r="5" cx="640.55" cy="69.64" fill="#132e65"></circle><circle r="5" cx="651.52" cy="205.32" fill="#132e65"></circle><circle r="5" cx="651.32" cy="268.83" fill="#132e65"></circle><circle r="5" cx="622.24" cy="415.06" fill="#132e65"></circle><circle r="5" cx="667.19" cy="516.41" fill="#132e65"></circle><circle r="5" cx="669.51" cy="626.42" fill="#132e65"></circle><circle r="5" cx="656.99" cy="749.01" fill="#132e65"></circle><circle r="5" cx="643.27" cy="909.45" fill="#132e65"></circle><path d="M59.09 1000.07L59.09 1000.07" stroke="hsl(228.5, 77.2%, 51.5%)" stroke-width="1.5"></path><path d="M59.09 1000.07L167.82 1021.87" stroke="hsl(228.5, 77.2%, 51.5%)" stroke-width="1.5"></path><path d="M59.09 1000.07L63.83 883.5" stroke="hsl(228.5, 77.2%, 51.5%)" stroke-width="1.5"></path><path d="M59.09 1000.07L-84.02 1007.75" stroke="hsl(228.5, 77.2%, 51.5%)" stroke-width="1.5"></path><path d="M59.09 1000.07L-44.12 854.78" stroke="hsl(228.5, 77.2%, 51.5%)" stroke-width="1.5"></path><path d="M59.09 1000.07L197.98 865.07" stroke="hsl(228.5, 77.2%, 51.5%)" stroke-width="1.5"></path><path d="M59.09 1000.07L280.38 989.86" stroke="hsl(228.5, 77.2%, 51.5%)" stroke-width="1.5"></path><path d="M400.9 523.42L400.9 523.42" stroke="hsl(228.5, 77.2%, 51.5%)" stroke-width="1.5"></path><path d="M400.9 523.42L500.06 540.67" stroke="hsl(228.5, 77.2%, 51.5%)" stroke-width="1.5"></path><path d="M400.9 523.42L423.92 621.61" stroke="hsl(228.5, 77.2%, 51.5%)" stroke-width="1.5"></path><path d="M400.9 523.42L303.13 617.64" stroke="hsl(228.5, 77.2%, 51.5%)" stroke-width="1.5"></path><path d="M423.92 621.61L423.92 621.61" stroke="hsl(228.5, 77.2%, 51.5%)" stroke-width="1.5"></path><path d="M423.92 621.61L518.17 621.09" stroke="hsl(228.5, 77.2%, 51.5%)" stroke-width="1.5"></path><path d="M423.92 621.61L500.06 540.67" stroke="hsl(228.5, 77.2%, 51.5%)" stroke-width="1.5"></path><path d="M423.92 621.61L303.13 617.64" stroke="hsl(228.5, 77.2%, 51.5%)" stroke-width="1.5"></path><path d="M423.92 621.61L432.1 744.93" stroke="hsl(228.5, 77.2%, 51.5%)" stroke-width="1.5"></path><path d="M500.06 540.67L500.06 540.67" stroke="hsl(228.5, 77.2%, 51.5%)" stroke-width="1.5"></path><path d="M500.06 540.67L518.17 621.09" stroke="hsl(228.5, 77.2%, 51.5%)" stroke-width="1.5"></path><path d="M500.06 540.67L515.88 413.41" stroke="hsl(228.5, 77.2%, 51.5%)" stroke-width="1.5"></path><path d="M500.06 540.67L653.91 521.64" stroke="hsl(228.5, 77.2%, 51.5%)" stroke-width="1.5"></path><path d="M500.06 540.67L647.89 628.35" stroke="hsl(228.5, 77.2%, 51.5%)" stroke-width="1.5"></path><path d="M-83.33 786.69L-83.33 786.69" stroke="hsl(228.5, 77.2%, 51.5%)" stroke-width="1.5"></path><path d="M-83.33 786.69L-44.12 854.78" stroke="hsl(228.5, 77.2%, 51.5%)" stroke-width="1.5"></path><path d="M-83.33 786.69L58.28 750.86" stroke="hsl(228.5, 77.2%, 51.5%)" stroke-width="1.5"></path><path d="M-44.12 854.78L-44.12 854.78" stroke="hsl(228.5, 77.2%, 51.5%)" stroke-width="1.5"></path><path d="M-44.12 854.78L63.83 883.5" stroke="hsl(228.5, 77.2%, 51.5%)" stroke-width="1.5"></path><path d="M-44.12 854.78L58.28 750.86" stroke="hsl(228.5, 77.2%, 51.5%)" stroke-width="1.5"></path><path d="M-84.02 1007.75L-84.02 1007.75" stroke="hsl(228.5, 77.2%, 51.5%)" stroke-width="1.5"></path><path d="M-84.02 1007.75L-44.12 854.78" stroke="hsl(228.5, 77.2%, 51.5%)" stroke-width="1.5"></path><path d="M58.28 750.86L58.28 750.86" stroke="hsl(228.5, 77.2%, 51.5%)" stroke-width="1.5"></path><path d="M58.28 750.86L63.83 883.5" stroke="hsl(228.5, 77.2%, 51.5%)" stroke-width="1.5"></path><path d="M58.28 750.86L191.84 739.85" stroke="hsl(228.5, 77.2%, 51.5%)" stroke-width="1.5"></path><path d="M58.28 750.86L197.98 865.07" stroke="hsl(228.5, 77.2%, 51.5%)" stroke-width="1.5"></path><path d="M63.83 883.5L63.83 883.5" stroke="hsl(228.5, 77.2%, 51.5%)" stroke-width="1.5"></path><path d="M191.84 739.85L191.84 739.85" stroke="hsl(228.5, 77.2%, 51.5%)" stroke-width="1.5"></path><path d="M191.84 739.85L281.2 780.64" stroke="hsl(228.5, 77.2%, 51.5%)" stroke-width="1.5"></path><path d="M191.84 739.85L197.98 865.07" stroke="hsl(228.5, 77.2%, 51.5%)" stroke-width="1.5"></path><path d="M191.84 739.85L303.13 617.64" stroke="hsl(228.5, 77.2%, 51.5%)" stroke-width="1.5"></path><path d="M191.84 739.85L281.18 906.53" stroke="hsl(228.5, 77.2%, 51.5%)" stroke-width="1.5"></path><path d="M191.84 739.85L63.83 883.5" stroke="hsl(228.5, 77.2%, 51.5%)" stroke-width="1.5"></path><path d="M197.98 865.07L197.98 865.07" stroke="hsl(228.5, 77.2%, 51.5%)" stroke-width="1.5"></path><path d="M197.98 865.07L281.18 906.53" stroke="hsl(228.5, 77.2%, 51.5%)" stroke-width="1.5"></path><path d="M197.98 865.07L281.2 780.64" stroke="hsl(228.5, 77.2%, 51.5%)" stroke-width="1.5"></path><path d="M167.82 1021.87L167.82 1021.87" stroke="hsl(228.5, 77.2%, 51.5%)" stroke-width="1.5"></path><path d="M167.82 1021.87L280.38 989.86" stroke="hsl(228.5, 77.2%, 51.5%)" stroke-width="1.5"></path><path d="M167.82 1021.87L197.98 865.07" stroke="hsl(228.5, 77.2%, 51.5%)" stroke-width="1.5"></path><path d="M303.13 617.64L303.13 617.64" stroke="hsl(228.5, 77.2%, 51.5%)" stroke-width="1.5"></path><path d="M281.2 780.64L281.2 780.64" stroke="hsl(228.5, 77.2%, 51.5%)" stroke-width="1.5"></path><path d="M281.18 906.53L281.18 906.53" stroke="hsl(228.5, 77.2%, 51.5%)" stroke-width="1.5"></path><path d="M281.18 906.53L280.38 989.86" stroke="hsl(228.5, 77.2%, 51.5%)" stroke-width="1.5"></path><path d="M280.38 989.86L280.38 989.86" stroke="hsl(228.5, 77.2%, 51.5%)" stroke-width="1.5"></path><path d="M280.38 989.86L197.98 865.07" stroke="hsl(228.5, 77.2%, 51.5%)" stroke-width="1.5"></path><path d="M280.38 989.86L440.47 999.94" stroke="hsl(228.5, 77.2%, 51.5%)" stroke-width="1.5"></path><path d="M435.69 158.27L435.69 158.27" stroke="hsl(228.5, 77.2%, 51.5%)" stroke-width="1.5"></path><path d="M435.69 158.27L549.17 189.61" stroke="hsl(228.5, 77.2%, 51.5%)" stroke-width="1.5"></path><path d="M435.69 158.27L516.32 47.41" stroke="hsl(228.5, 77.2%, 51.5%)" stroke-width="1.5"></path><path d="M435.69 158.27L545.95 318.84" stroke="hsl(228.5, 77.2%, 51.5%)" stroke-width="1.5"></path><path d="M432.1 744.93L432.1 744.93" stroke="hsl(228.5, 77.2%, 51.5%)" stroke-width="1.5"></path><path d="M432.1 744.93L524.87 758.42" stroke="hsl(228.5, 77.2%, 51.5%)" stroke-width="1.5"></path><path d="M432.1 744.93L419.39 875.86" stroke="hsl(228.5, 77.2%, 51.5%)" stroke-width="1.5"></path><path d="M432.1 744.93L518.17 621.09" stroke="hsl(228.5, 77.2%, 51.5%)" stroke-width="1.5"></path><path d="M432.1 744.93L281.2 780.64" stroke="hsl(228.5, 77.2%, 51.5%)" stroke-width="1.5"></path><path d="M432.1 744.93L507.96 904.78" stroke="hsl(228.5, 77.2%, 51.5%)" stroke-width="1.5"></path><path d="M419.39 875.86L419.39 875.86" stroke="hsl(228.5, 77.2%, 51.5%)" stroke-width="1.5"></path><path d="M419.39 875.86L507.96 904.78" stroke="hsl(228.5, 77.2%, 51.5%)" stroke-width="1.5"></path><path d="M419.39 875.86L440.47 999.94" stroke="hsl(228.5, 77.2%, 51.5%)" stroke-width="1.5"></path><path d="M419.39 875.86L281.18 906.53" stroke="hsl(228.5, 77.2%, 51.5%)" stroke-width="1.5"></path><path d="M419.39 875.86L524.87 758.42" stroke="hsl(228.5, 77.2%, 51.5%)" stroke-width="1.5"></path><path d="M419.39 875.86L281.2 780.64" stroke="hsl(228.5, 77.2%, 51.5%)" stroke-width="1.5"></path><path d="M440.47 999.94L440.47 999.94" stroke="hsl(228.5, 77.2%, 51.5%)" stroke-width="1.5"></path><path d="M440.47 999.94L525.6 1011.21" stroke="hsl(228.5, 77.2%, 51.5%)" stroke-width="1.5"></path><path d="M440.47 999.94L507.96 904.78" stroke="hsl(228.5, 77.2%, 51.5%)" stroke-width="1.5"></path><path d="M440.47 999.94L622.75 1000.39" stroke="hsl(228.5, 77.2%, 51.5%)" stroke-width="1.5"></path><path d="M548.6 -50.65L548.6 -50.65" stroke="hsl(228.5, 77.2%, 51.5%)" stroke-width="1.5"></path><path d="M548.6 -50.65L516.32 47.41" stroke="hsl(228.5, 77.2%, 51.5%)" stroke-width="1.5"></path><path d="M548.6 -50.65L652.05 -47.46" stroke="hsl(228.5, 77.2%, 51.5%)" stroke-width="1.5"></path><path d="M548.6 -50.65L652.41 49.14" stroke="hsl(228.5, 77.2%, 51.5%)" stroke-width="1.5"></path><path d="M516.32 47.41L516.32 47.41" stroke="hsl(228.5, 77.2%, 51.5%)" stroke-width="1.5"></path><path d="M549.17 189.61L549.17 189.61" stroke="hsl(228.5, 77.2%, 51.5%)" stroke-width="1.5"></path><path d="M549.17 189.61L643.16 155.74" stroke="hsl(228.5, 77.2%, 51.5%)" stroke-width="1.5"></path><path d="M545.95 318.84L545.95 318.84" stroke="hsl(228.5, 77.2%, 51.5%)" stroke-width="1.5"></path><path d="M545.95 318.84L515.88 413.41" stroke="hsl(228.5, 77.2%, 51.5%)" stroke-width="1.5"></path><path d="M545.95 318.84L549.17 189.61" stroke="hsl(228.5, 77.2%, 51.5%)" stroke-width="1.5"></path><path d="M545.95 318.84L643.16 155.74" stroke="hsl(228.5, 77.2%, 51.5%)" stroke-width="1.5"></path><path d="M515.88 413.41L515.88 413.41" stroke="hsl(228.5, 77.2%, 51.5%)" stroke-width="1.5"></path><path d="M515.88 413.41L400.9 523.42" stroke="hsl(228.5, 77.2%, 51.5%)" stroke-width="1.5"></path><path d="M515.88 413.41L653.91 521.64" stroke="hsl(228.5, 77.2%, 51.5%)" stroke-width="1.5"></path><path d="M515.88 413.41L518.17 621.09" stroke="hsl(228.5, 77.2%, 51.5%)" stroke-width="1.5"></path><path d="M515.88 413.41L549.17 189.61" stroke="hsl(228.5, 77.2%, 51.5%)" stroke-width="1.5"></path><path d="M518.17 621.09L518.17 621.09" stroke="hsl(228.5, 77.2%, 51.5%)" stroke-width="1.5"></path><path d="M518.17 621.09L647.89 628.35" stroke="hsl(228.5, 77.2%, 51.5%)" stroke-width="1.5"></path><path d="M518.17 621.09L524.87 758.42" stroke="hsl(228.5, 77.2%, 51.5%)" stroke-width="1.5"></path><path d="M524.87 758.42L524.87 758.42" stroke="hsl(228.5, 77.2%, 51.5%)" stroke-width="1.5"></path><path d="M524.87 758.42L654.4 744.57" stroke="hsl(228.5, 77.2%, 51.5%)" stroke-width="1.5"></path><path d="M507.96 904.78L507.96 904.78" stroke="hsl(228.5, 77.2%, 51.5%)" stroke-width="1.5"></path><path d="M507.96 904.78L525.6 1011.21" stroke="hsl(228.5, 77.2%, 51.5%)" stroke-width="1.5"></path><path d="M525.6 1011.21L525.6 1011.21" stroke="hsl(228.5, 77.2%, 51.5%)" stroke-width="1.5"></path><path d="M525.6 1011.21L622.75 1000.39" stroke="hsl(228.5, 77.2%, 51.5%)" stroke-width="1.5"></path><path d="M525.6 1011.21L419.39 875.86" stroke="hsl(228.5, 77.2%, 51.5%)" stroke-width="1.5"></path><path d="M525.6 1011.21L644.93 879.54" stroke="hsl(228.5, 77.2%, 51.5%)" stroke-width="1.5"></path><path d="M652.05 -47.46L652.05 -47.46" stroke="hsl(228.5, 77.2%, 51.5%)" stroke-width="1.5"></path><path d="M652.05 -47.46L652.41 49.14" stroke="hsl(228.5, 77.2%, 51.5%)" stroke-width="1.5"></path><path d="M652.05 -47.46L516.32 47.41" stroke="hsl(228.5, 77.2%, 51.5%)" stroke-width="1.5"></path><path d="M652.05 -47.46L643.16 155.74" stroke="hsl(228.5, 77.2%, 51.5%)" stroke-width="1.5"></path><path d="M652.05 -47.46L549.17 189.61" stroke="hsl(228.5, 77.2%, 51.5%)" stroke-width="1.5"></path><path d="M652.41 49.14L652.41 49.14" stroke="hsl(228.5, 77.2%, 51.5%)" stroke-width="1.5"></path><path d="M652.41 49.14L643.16 155.74" stroke="hsl(228.5, 77.2%, 51.5%)" stroke-width="1.5"></path><path d="M652.41 49.14L516.32 47.41" stroke="hsl(228.5, 77.2%, 51.5%)" stroke-width="1.5"></path><path d="M652.41 49.14L549.17 189.61" stroke="hsl(228.5, 77.2%, 51.5%)" stroke-width="1.5"></path><path d="M643.16 155.74L643.16 155.74" stroke="hsl(228.5, 77.2%, 51.5%)" stroke-width="1.5"></path><path d="M643.16 155.74L516.32 47.41" stroke="hsl(228.5, 77.2%, 51.5%)" stroke-width="1.5"></path><path d="M653.91 521.64L653.91 521.64" stroke="hsl(228.5, 77.2%, 51.5%)" stroke-width="1.5"></path><path d="M653.91 521.64L647.89 628.35" stroke="hsl(228.5, 77.2%, 51.5%)" stroke-width="1.5"></path><path d="M653.91 521.64L518.17 621.09" stroke="hsl(228.5, 77.2%, 51.5%)" stroke-width="1.5"></path><path d="M647.89 628.35L647.89 628.35" stroke="hsl(228.5, 77.2%, 51.5%)" stroke-width="1.5"></path><path d="M647.89 628.35L654.4 744.57" stroke="hsl(228.5, 77.2%, 51.5%)" stroke-width="1.5"></path><path d="M654.4 744.57L654.4 744.57" stroke="hsl(228.5, 77.2%, 51.5%)" stroke-width="1.5"></path><path d="M654.4 744.57L644.93 879.54" stroke="hsl(228.5, 77.2%, 51.5%)" stroke-width="1.5"></path><path d="M644.93 879.54L644.93 879.54" stroke="hsl(228.5, 77.2%, 51.5%)" stroke-width="1.5"></path><path d="M644.93 879.54L622.75 1000.39" stroke="hsl(228.5, 77.2%, 51.5%)" stroke-width="1.5"></path><path d="M644.93 879.54L507.96 904.78" stroke="hsl(228.5, 77.2%, 51.5%)" stroke-width="1.5"></path><path d="M644.93 879.54L524.87 758.42" stroke="hsl(228.5, 77.2%, 51.5%)" stroke-width="1.5"></path><path d="M644.93 879.54L419.39 875.86" stroke="hsl(228.5, 77.2%, 51.5%)" stroke-width="1.5"></path><path d="M622.75 1000.39L622.75 1000.39" stroke="hsl(228.5, 77.2%, 51.5%)" stroke-width="1.5"></path><path d="M622.75 1000.39L507.96 904.78" stroke="hsl(228.5, 77.2%, 51.5%)" stroke-width="1.5"></path><circle r="25" cx="59.09" cy="1000.07" fill="url(#SvgjsRadialGradient1129)"></circle><circle r="25" cx="400.9" cy="523.42" fill="url(#SvgjsRadialGradient1129)"></circle><circle r="25" cx="423.92" cy="621.61" fill="url(#SvgjsRadialGradient1129)"></circle><circle r="25" cx="500.06" cy="540.67" fill="url(#SvgjsRadialGradient1129)"></circle><circle r="5" cx="-83.33" cy="786.69" fill="#8b9ad9"></circle><circle r="5" cx="-44.12" cy="854.78" fill="#8b9ad9"></circle><circle r="5" cx="-84.02" cy="1007.75" fill="#8b9ad9"></circle><circle r="5" cx="58.28" cy="750.86" fill="#8b9ad9"></circle><circle r="5" cx="63.83" cy="883.5" fill="#8b9ad9"></circle><circle r="5" cx="191.84" cy="739.85" fill="#8b9ad9"></circle><circle r="5" cx="197.98" cy="865.07" fill="#8b9ad9"></circle><circle r="5" cx="167.82" cy="1021.87" fill="#8b9ad9"></circle><circle r="5" cx="303.13" cy="617.64" fill="#8b9ad9"></circle><circle r="5" cx="281.2" cy="780.64" fill="#8b9ad9"></circle><circle r="5" cx="281.18" cy="906.53" fill="#8b9ad9"></circle><circle r="5" cx="280.38" cy="989.86" fill="#8b9ad9"></circle><circle r="5" cx="435.69" cy="158.27" fill="#8b9ad9"></circle><circle r="5" cx="432.1" cy="744.93" fill="#8b9ad9"></circle><circle r="5" cx="419.39" cy="875.86" fill="#8b9ad9"></circle><circle r="5" cx="440.47" cy="999.94" fill="#8b9ad9"></circle><circle r="5" cx="548.6" cy="-50.65" fill="#8b9ad9"></circle><circle r="5" cx="516.32" cy="47.41" fill="#8b9ad9"></circle><circle r="5" cx="549.17" cy="189.61" fill="#8b9ad9"></circle><circle r="5" cx="545.95" cy="318.84" fill="#8b9ad9"></circle><circle r="5" cx="515.88" cy="413.41" fill="#8b9ad9"></circle><circle r="5" cx="518.17" cy="621.09" fill="#8b9ad9"></circle><circle r="5" cx="524.87" cy="758.42" fill="#8b9ad9"></circle><circle r="5" cx="507.96" cy="904.78" fill="#8b9ad9"></circle><circle r="5" cx="525.6" cy="1011.21" fill="#8b9ad9"></circle><circle r="5" cx="652.05" cy="-47.46" fill="#8b9ad9"></circle><circle r="5" cx="652.41" cy="49.14" fill="#8b9ad9"></circle><circle r="5" cx="643.16" cy="155.74" fill="#8b9ad9"></circle><circle r="5" cx="653.91" cy="521.64" fill="#8b9ad9"></circle><circle r="5" cx="647.89" cy="628.35" fill="#8b9ad9"></circle><circle r="5" cx="654.4" cy="744.57" fill="#8b9ad9"></circle><circle r="5" cx="644.93" cy="879.54" fill="#8b9ad9"></circle><circle r="5" cx="622.75" cy="1000.39" fill="#8b9ad9"></circle></g><defs><mask id="SvgjsMask1127"><rect width="555" height="940" fill="#ffffff"></rect></mask><linearGradient x1="0%" y1="50%" x2="100%" y2="50%" gradientUnits="userSpaceOnUse" id="SvgjsLinearGradient1128"><stop stop-color="#0e2a47" offset="0"></stop><stop stop-color="rgba(0, 111, 255, 1)" offset="1"></stop></linearGradient><radialGradient id="SvgjsRadialGradient1129"><stop stop-color="#ffffff" offset="0.1"></stop><stop stop-color="#1735b3" offset="0.2"></stop><stop stop-color="rgba(23, 53, 179, 0)" offset="1"></stop></radialGradient></defs></svg>