<svg xmlns="http://www.w3.org/2000/svg" version="1.1" xmlns:xlink="http://www.w3.org/1999/xlink" xmlns:svgjs="http://svgjs.com/svgjs" width="700" height="600" preserveAspectRatio="none" viewBox="0 0 700 600"><g mask="url(&quot;#SvgjsMask1044&quot;)" fill="none"><rect width="700" height="600" x="0" y="0" fill="rgba(1, 125, 252, 1)"></rect><path d="M0,314.56C58.771,314.32,114.662,286.16,159.443,248.099C200.999,212.779,222.708,161.413,240.742,109.943C257.441,62.285,257.321,13.152,259.443,-37.302C262.065,-99.649,286.69,-167.106,254.647,-220.653C221.833,-275.487,153.631,-296.46,92.746,-315.864C30.741,-335.625,-35.017,-350.214,-97.767,-332.965C-161.036,-315.573,-218.555,-275.398,-254.399,-220.438C-288.253,-168.529,-289.218,-103.356,-287.924,-41.397C-286.79,12.897,-269.262,63.273,-247.435,113C-225.3,163.428,-202.979,214.62,-160.281,249.402C-114.642,286.579,-58.865,314.8,0,314.56" fill="#0164ca"></path><path d="M700 921.19C758.712 914.094 801.942 867.915 850.298 833.869 896.46 801.3679999999999 953.983 778.048 976.7080000000001 726.3679999999999 999.352 674.872 983.626 615.782 970.22 561.148 957.854 510.753 935.931 464.21500000000003 902.619 424.43 868.876 384.129 829.389 345.852 778.605 332.297 728.346 318.882 678.379 343.816 626.833 350.81600000000003 564.3820000000001 359.297 490.744 336.011 443.565 377.798 396.487 419.495 396.228 493.272 395.003 556.148 393.881 613.728 415.139 666.833 436.895 720.156 459.55899999999997 775.705 476.714 836.836 524.386 873.261 573.598 910.863 638.514 928.621 700 921.19" fill="#3197fe"></path></g><defs><mask id="SvgjsMask1044"><rect width="700" height="600" fill="#ffffff"></rect></mask></defs></svg>